<mxfile host="65bd71144e">
    <diagram name="Seite-1" id="7PXLoONtQBVVqUtS3sIZ">
        <mxGraphModel dx="1054" dy="1337" grid="1" gridSize="10" guides="1" tooltips="1" connect="1" arrows="1" fold="1" page="1" pageScale="1" pageWidth="827" pageHeight="1169" math="0" shadow="0">
            <root>
                <mxCell id="0"/>
                <mxCell id="1" parent="0"/>
                <mxCell id="0uPD2-q82YcFwM2yU2tX-1" value="A" style="rounded=1;whiteSpace=wrap;html=1;" parent="1" vertex="1">
                    <mxGeometry x="100" y="200" width="30" height="30" as="geometry"/>
                </mxCell>
                <mxCell id="0uPD2-q82YcFwM2yU2tX-3" value="B" style="rounded=1;whiteSpace=wrap;html=1;" parent="1" vertex="1">
                    <mxGeometry x="235" y="330" width="30" height="30" as="geometry"/>
                </mxCell>
                <mxCell id="0uPD2-q82YcFwM2yU2tX-4" value="C" style="rounded=1;whiteSpace=wrap;html=1;" parent="1" vertex="1">
                    <mxGeometry x="230" y="65.5" width="30" height="30" as="geometry"/>
                </mxCell>
                <mxCell id="0uPD2-q82YcFwM2yU2tX-5" value="G" style="rounded=1;whiteSpace=wrap;html=1;" parent="1" vertex="1">
                    <mxGeometry x="355" y="210" width="30" height="30" as="geometry"/>
                </mxCell>
                <mxCell id="0uPD2-q82YcFwM2yU2tX-6" value="H" style="rounded=1;whiteSpace=wrap;html=1;" parent="1" vertex="1">
                    <mxGeometry x="355" y="88" width="30" height="30" as="geometry"/>
                </mxCell>
                <mxCell id="0uPD2-q82YcFwM2yU2tX-7" value="I" style="rounded=1;whiteSpace=wrap;html=1;" parent="1" vertex="1">
                    <mxGeometry x="585" y="315" width="30" height="30" as="geometry"/>
                </mxCell>
                <mxCell id="0uPD2-q82YcFwM2yU2tX-8" value="L" style="rounded=1;whiteSpace=wrap;html=1;aspect=fixed;" parent="1" vertex="1">
                    <mxGeometry x="585" y="73" width="30" height="15" as="geometry"/>
                </mxCell>
                <mxCell id="0uPD2-q82YcFwM2yU2tX-9" value="6" style="endArrow=classic;startArrow=none;html=1;rounded=1;entryX=0.883;entryY=0.05;entryDx=0;entryDy=0;startFill=0;entryPerimeter=0;" parent="1" source="0uPD2-q82YcFwM2yU2tX-4" target="0uPD2-q82YcFwM2yU2tX-1" edge="1">
                    <mxGeometry width="50" height="50" relative="1" as="geometry">
                        <mxPoint x="580" y="240" as="sourcePoint"/>
                        <mxPoint x="630" y="190" as="targetPoint"/>
                        <Array as="points">
                            <mxPoint x="200" y="170"/>
                        </Array>
                    </mxGeometry>
                </mxCell>
                <mxCell id="0uPD2-q82YcFwM2yU2tX-11" value="2" style="endArrow=classic;html=1;rounded=0;entryX=0.5;entryY=1;entryDx=0;entryDy=0;exitX=0.5;exitY=0;exitDx=0;exitDy=0;" parent="1" source="0uPD2-q82YcFwM2yU2tX-3" target="0uPD2-q82YcFwM2yU2tX-4" edge="1">
                    <mxGeometry width="50" height="50" relative="1" as="geometry">
                        <mxPoint x="210" y="310" as="sourcePoint"/>
                        <mxPoint x="260" y="260" as="targetPoint"/>
                    </mxGeometry>
                </mxCell>
                <mxCell id="0uPD2-q82YcFwM2yU2tX-12" value="12" style="endArrow=classic;html=1;rounded=0;exitX=0.981;exitY=0.097;exitDx=0;exitDy=0;exitPerimeter=0;entryX=0;entryY=1;entryDx=0;entryDy=0;" parent="1" source="0uPD2-q82YcFwM2yU2tX-3" target="0uPD2-q82YcFwM2yU2tX-5" edge="1">
                    <mxGeometry width="50" height="50" relative="1" as="geometry">
                        <mxPoint x="320" y="360" as="sourcePoint"/>
                        <mxPoint x="370" y="310" as="targetPoint"/>
                    </mxGeometry>
                </mxCell>
                <mxCell id="0uPD2-q82YcFwM2yU2tX-13" value="5" style="endArrow=classic;html=1;rounded=0;entryX=0.044;entryY=0.063;entryDx=0;entryDy=0;entryPerimeter=0;exitX=1;exitY=1;exitDx=0;exitDy=0;" parent="1" source="0uPD2-q82YcFwM2yU2tX-4" target="0uPD2-q82YcFwM2yU2tX-5" edge="1">
                    <mxGeometry width="50" height="50" relative="1" as="geometry">
                        <mxPoint x="320" y="200" as="sourcePoint"/>
                        <mxPoint x="370" y="150" as="targetPoint"/>
                    </mxGeometry>
                </mxCell>
                <mxCell id="0uPD2-q82YcFwM2yU2tX-15" value="10" style="endArrow=classic;html=1;rounded=0;exitX=0.5;exitY=1;exitDx=0;exitDy=0;entryX=0.5;entryY=0;entryDx=0;entryDy=0;" parent="1" source="0uPD2-q82YcFwM2yU2tX-6" target="0uPD2-q82YcFwM2yU2tX-5" edge="1">
                    <mxGeometry width="50" height="50" relative="1" as="geometry">
                        <mxPoint x="560" y="220" as="sourcePoint"/>
                        <mxPoint x="610" y="170" as="targetPoint"/>
                    </mxGeometry>
                </mxCell>
                <mxCell id="0uPD2-q82YcFwM2yU2tX-18" value="30" style="endArrow=classic;startArrow=classic;html=1;rounded=0;entryX=0;entryY=0;entryDx=0;entryDy=0;exitX=0.958;exitY=0.936;exitDx=0;exitDy=0;exitPerimeter=0;" parent="1" source="0uPD2-q82YcFwM2yU2tX-5" target="0uPD2-q82YcFwM2yU2tX-7" edge="1">
                    <mxGeometry width="50" height="50" relative="1" as="geometry">
                        <mxPoint x="410" y="300" as="sourcePoint"/>
                        <mxPoint x="460" y="250" as="targetPoint"/>
                    </mxGeometry>
                </mxCell>
                <mxCell id="0uPD2-q82YcFwM2yU2tX-19" value="3" style="endArrow=classic;html=1;rounded=0;entryX=0.5;entryY=1;entryDx=0;entryDy=0;exitX=0.5;exitY=0;exitDx=0;exitDy=0;" parent="1" source="0uPD2-q82YcFwM2yU2tX-7" target="0uPD2-q82YcFwM2yU2tX-8" edge="1">
                    <mxGeometry width="50" height="50" relative="1" as="geometry">
                        <mxPoint x="600" y="300" as="sourcePoint"/>
                        <mxPoint x="690" y="230" as="targetPoint"/>
                    </mxGeometry>
                </mxCell>
                <mxCell id="0uPD2-q82YcFwM2yU2tX-20" value="4" style="endArrow=classic;html=1;rounded=0;entryX=1;entryY=0;entryDx=0;entryDy=0;exitX=0;exitY=1;exitDx=0;exitDy=0;" parent="1" source="0uPD2-q82YcFwM2yU2tX-8" target="0uPD2-q82YcFwM2yU2tX-5" edge="1">
                    <mxGeometry width="50" height="50" relative="1" as="geometry">
                        <mxPoint x="520" y="240" as="sourcePoint"/>
                        <mxPoint x="570" y="190" as="targetPoint"/>
                    </mxGeometry>
                </mxCell>
                <mxCell id="0uPD2-q82YcFwM2yU2tX-27" value="10" style="endArrow=none;startArrow=classic;html=1;rounded=0;entryX=0;entryY=0;entryDx=0;entryDy=0;exitX=0.5;exitY=1;exitDx=0;exitDy=0;endFill=0;" parent="1" source="0uPD2-q82YcFwM2yU2tX-1" target="0uPD2-q82YcFwM2yU2tX-3" edge="1">
                    <mxGeometry width="50" height="50" relative="1" as="geometry">
                        <mxPoint x="70" y="340" as="sourcePoint"/>
                        <mxPoint x="120" y="290" as="targetPoint"/>
                        <Array as="points">
                            <mxPoint x="170" y="310"/>
                        </Array>
                    </mxGeometry>
                </mxCell>
                <mxCell id="2" value="25" style="endArrow=classic;html=1;" edge="1" parent="1" source="0uPD2-q82YcFwM2yU2tX-1" target="0uPD2-q82YcFwM2yU2tX-4">
                    <mxGeometry width="50" height="50" relative="1" as="geometry">
                        <mxPoint x="40" y="340" as="sourcePoint"/>
                        <mxPoint x="90" y="140" as="targetPoint"/>
                        <Array as="points">
                            <mxPoint x="140" y="140"/>
                        </Array>
                    </mxGeometry>
                </mxCell>
                <mxCell id="3" value="15" style="endArrow=classic;html=1;rounded=1;" edge="1" parent="1" source="0uPD2-q82YcFwM2yU2tX-1" target="0uPD2-q82YcFwM2yU2tX-3">
                    <mxGeometry width="50" height="50" relative="1" as="geometry">
                        <mxPoint x="260" y="350" as="sourcePoint"/>
                        <mxPoint x="310" y="300" as="targetPoint"/>
                        <Array as="points">
                            <mxPoint x="200" y="260"/>
                        </Array>
                    </mxGeometry>
                </mxCell>
            </root>
        </mxGraphModel>
    </diagram>
</mxfile>
